<svg xmlns="http://www.w3.org/2000/svg" xmlns:xlink="http://www.w3.org/1999/xlink" viewBox="0 0 1800 350.88">
	<defs>
		<style>.cls-1{fill:url(#linear-gradient);}.cls-2{fill:#2d2d2b;}</style>
		<linearGradient id="linear-gradient" y1="175.44" x2="1800" y2="175.44" gradientUnits="userSpaceOnUse">
			<stop offset="0" stop-color="#ea3234" />
			<stop offset="1" stop-color="#d22829" />
		</linearGradient>
	</defs>
	<g id="Layer_2" data-name="Layer 2">
		<g id="Layer_1-2" data-name="Layer 1">
			<g id="Header">
				<path class="cls-1" d="M0,0V301.86s154.09,104.3,564.06,8.63h0l.08,0a.71.71,0,0,1,.26-.07.63.63,0,0,1,.32-.09h.06a13.17,13.17,0,0,1,1.33-.4,19.65,19.65,0,0,1,2-.67c.06,0,1.63-.53,2-.67,8.08-2.89,16.87-4.77,25.16-7.08,6.65-1.85,72.46-19.4,73.35-18.28l.68-.19C1158.53,142.13,1800,92.47,1800,92.47V0Z" />
				<path class="cls-2" d="M669.35,271.45C1095.85,99.4,1433.67,0,1433.67,0H1800S1435.72,85.28,669.35,283.25c-34.36,8.88-68.73,18-104.7,27.32" />
			</g>
		</g>
	</g>
</svg>